<svg class="rich-terminal" viewBox="0 0 1482 928.4" xmlns="http://www.w3.org/2000/svg">
    <!-- Generated with Rich https://www.textualize.io -->
    <style>

    @font-face {
        font-family: "Fira Code";
        src: local("FiraCode-Regular"),
                url("https://cdnjs.cloudflare.com/ajax/libs/firacode/6.2.0/woff2/FiraCode-Regular.woff2") format("woff2"),
                url("https://cdnjs.cloudflare.com/ajax/libs/firacode/6.2.0/woff/FiraCode-Regular.woff") format("woff");
        font-style: normal;
        font-weight: 400;
    }
    @font-face {
        font-family: "Fira Code";
        src: local("FiraCode-Bold"),
                url("https://cdnjs.cloudflare.com/ajax/libs/firacode/6.2.0/woff2/FiraCode-Bold.woff2") format("woff2"),
                url("https://cdnjs.cloudflare.com/ajax/libs/firacode/6.2.0/woff/FiraCode-Bold.woff") format("woff");
        font-style: bold;
        font-weight: 700;
    }

    .terminal-2941101838-matrix {
        font-family: Fira Code, monospace;
        font-size: 20px;
        line-height: 24.4px;
        font-variant-east-asian: full-width;
    }

    .terminal-2941101838-title {
        font-size: 18px;
        font-weight: bold;
        font-family: arial;
    }

    .terminal-2941101838-r1 { fill: #c5c8c6 }
.terminal-2941101838-r2 { fill: #e6edf3 }
.terminal-2941101838-r3 { fill: #3fb950 }
.terminal-2941101838-r4 { fill: #3fb950;font-weight: bold }
.terminal-2941101838-r5 { fill: #58a6ff;font-weight: bold }
.terminal-2941101838-r6 { fill: #9ca2a8 }
.terminal-2941101838-r7 { fill: #0d1117 }
.terminal-2941101838-r8 { fill: #58a6ff }
.terminal-2941101838-r9 { fill: #161b22 }
.terminal-2941101838-r10 { fill: #6e7175 }
.terminal-2941101838-r11 { fill: #9e9fa2 }
.terminal-2941101838-r12 { fill: #3f454b }
    </style>

    <defs>
    <clipPath id="terminal-2941101838-clip-terminal">
      <rect x="0" y="0" width="1463.0" height="877.4" />
    </clipPath>
    <clipPath id="terminal-2941101838-line-0">
    <rect x="0" y="1.5" width="1464" height="24.65"/>
            </clipPath>
<clipPath id="terminal-2941101838-line-1">
    <rect x="0" y="25.9" width="1464" height="24.65"/>
            </clipPath>
<clipPath id="terminal-2941101838-line-2">
    <rect x="0" y="50.3" width="1464" height="24.65"/>
            </clipPath>
<clipPath id="terminal-2941101838-line-3">
    <rect x="0" y="74.7" width="1464" height="24.65"/>
            </clipPath>
<clipPath id="terminal-2941101838-line-4">
    <rect x="0" y="99.1" width="1464" height="24.65"/>
            </clipPath>
<clipPath id="terminal-2941101838-line-5">
    <rect x="0" y="123.5" width="1464" height="24.65"/>
            </clipPath>
<clipPath id="terminal-2941101838-line-6">
    <rect x="0" y="147.9" width="1464" height="24.65"/>
            </clipPath>
<clipPath id="terminal-2941101838-line-7">
    <rect x="0" y="172.3" width="1464" height="24.65"/>
            </clipPath>
<clipPath id="terminal-2941101838-line-8">
    <rect x="0" y="196.7" width="1464" height="24.65"/>
            </clipPath>
<clipPath id="terminal-2941101838-line-9">
    <rect x="0" y="221.1" width="1464" height="24.65"/>
            </clipPath>
<clipPath id="terminal-2941101838-line-10">
    <rect x="0" y="245.5" width="1464" height="24.65"/>
            </clipPath>
<clipPath id="terminal-2941101838-line-11">
    <rect x="0" y="269.9" width="1464" height="24.65"/>
            </clipPath>
<clipPath id="terminal-2941101838-line-12">
    <rect x="0" y="294.3" width="1464" height="24.65"/>
            </clipPath>
<clipPath id="terminal-2941101838-line-13">
    <rect x="0" y="318.7" width="1464" height="24.65"/>
            </clipPath>
<clipPath id="terminal-2941101838-line-14">
    <rect x="0" y="343.1" width="1464" height="24.65"/>
            </clipPath>
<clipPath id="terminal-2941101838-line-15">
    <rect x="0" y="367.5" width="1464" height="24.65"/>
            </clipPath>
<clipPath id="terminal-2941101838-line-16">
    <rect x="0" y="391.9" width="1464" height="24.65"/>
            </clipPath>
<clipPath id="terminal-2941101838-line-17">
    <rect x="0" y="416.3" width="1464" height="24.65"/>
            </clipPath>
<clipPath id="terminal-2941101838-line-18">
    <rect x="0" y="440.7" width="1464" height="24.65"/>
            </clipPath>
<clipPath id="terminal-2941101838-line-19">
    <rect x="0" y="465.1" width="1464" height="24.65"/>
            </clipPath>
<clipPath id="terminal-2941101838-line-20">
    <rect x="0" y="489.5" width="1464" height="24.65"/>
            </clipPath>
<clipPath id="terminal-2941101838-line-21">
    <rect x="0" y="513.9" width="1464" height="24.65"/>
            </clipPath>
<clipPath id="terminal-2941101838-line-22">
    <rect x="0" y="538.3" width="1464" height="24.65"/>
            </clipPath>
<clipPath id="terminal-2941101838-line-23">
    <rect x="0" y="562.7" width="1464" height="24.65"/>
            </clipPath>
<clipPath id="terminal-2941101838-line-24">
    <rect x="0" y="587.1" width="1464" height="24.65"/>
            </clipPath>
<clipPath id="terminal-2941101838-line-25">
    <rect x="0" y="611.5" width="1464" height="24.65"/>
            </clipPath>
<clipPath id="terminal-2941101838-line-26">
    <rect x="0" y="635.9" width="1464" height="24.65"/>
            </clipPath>
<clipPath id="terminal-2941101838-line-27">
    <rect x="0" y="660.3" width="1464" height="24.65"/>
            </clipPath>
<clipPath id="terminal-2941101838-line-28">
    <rect x="0" y="684.7" width="1464" height="24.65"/>
            </clipPath>
<clipPath id="terminal-2941101838-line-29">
    <rect x="0" y="709.1" width="1464" height="24.65"/>
            </clipPath>
<clipPath id="terminal-2941101838-line-30">
    <rect x="0" y="733.5" width="1464" height="24.65"/>
            </clipPath>
<clipPath id="terminal-2941101838-line-31">
    <rect x="0" y="757.9" width="1464" height="24.65"/>
            </clipPath>
<clipPath id="terminal-2941101838-line-32">
    <rect x="0" y="782.3" width="1464" height="24.65"/>
            </clipPath>
<clipPath id="terminal-2941101838-line-33">
    <rect x="0" y="806.7" width="1464" height="24.65"/>
            </clipPath>
<clipPath id="terminal-2941101838-line-34">
    <rect x="0" y="831.1" width="1464" height="24.65"/>
            </clipPath>
    </defs>

    <rect fill="#292929" stroke="rgba(255,255,255,0.35)" stroke-width="1" x="1" y="1" width="1480" height="926.4" rx="8"/><text class="terminal-2941101838-title" fill="#c5c8c6" text-anchor="middle" x="740" y="27">intui&#160;watch</text>
            <g transform="translate(26,22)">
            <circle cx="0" cy="0" r="7" fill="#ff5f57"/>
            <circle cx="22" cy="0" r="7" fill="#febc2e"/>
            <circle cx="44" cy="0" r="7" fill="#28c840"/>
            </g>
        
    <g transform="translate(9, 41)" clip-path="url(#terminal-2941101838-clip-terminal)">
    <rect fill="#161b22" x="0" y="1.5" width="12.2" height="24.65" shape-rendering="crispEdges"/><rect fill="#161b22" x="12.2" y="1.5" width="12.2" height="24.65" shape-rendering="crispEdges"/><rect fill="#161b22" x="24.4" y="1.5" width="61" height="24.65" shape-rendering="crispEdges"/><rect fill="#161b22" x="85.4" y="1.5" width="12.2" height="24.65" shape-rendering="crispEdges"/><rect fill="#161b22" x="97.6" y="1.5" width="488" height="24.65" shape-rendering="crispEdges"/><rect fill="#161b22" x="585.6" y="1.5" width="256.2" height="24.65" shape-rendering="crispEdges"/><rect fill="#161b22" x="841.8" y="1.5" width="500.2" height="24.65" shape-rendering="crispEdges"/><rect fill="#161b22" x="1342" y="1.5" width="12.2" height="24.65" shape-rendering="crispEdges"/><rect fill="#161b22" x="1354.2" y="1.5" width="0" height="24.65" shape-rendering="crispEdges"/><rect fill="#161b22" x="1354.2" y="1.5" width="97.6" height="24.65" shape-rendering="crispEdges"/><rect fill="#161b22" x="1451.8" y="1.5" width="12.2" height="24.65" shape-rendering="crispEdges"/><rect fill="#161b22" x="0" y="25.9" width="12.2" height="24.65" shape-rendering="crispEdges"/><rect fill="#161b22" x="12.2" y="25.9" width="1244.4" height="24.65" shape-rendering="crispEdges"/><rect fill="#161b22" x="1256.6" y="25.9" width="24.4" height="24.65" shape-rendering="crispEdges"/><rect fill="#161b22" x="1281" y="25.9" width="12.2" height="24.65" shape-rendering="crispEdges"/><rect fill="#161b22" x="1293.2" y="25.9" width="85.4" height="24.65" shape-rendering="crispEdges"/><rect fill="#161b22" x="1378.6" y="25.9" width="73.2" height="24.65" shape-rendering="crispEdges"/><rect fill="#161b22" x="1451.8" y="25.9" width="12.2" height="24.65" shape-rendering="crispEdges"/><rect fill="#0d1117" x="0" y="50.3" width="12.2" height="24.65" shape-rendering="crispEdges"/><rect fill="#0d1117" x="12.2" y="50.3" width="24.4" height="24.65" shape-rendering="crispEdges"/><rect fill="#0d1117" x="36.6" y="50.3" width="597.8" height="24.65" shape-rendering="crispEdges"/><rect fill="#0d1117" x="634.4" y="50.3" width="85.4" height="24.65" shape-rendering="crispEdges"/><rect fill="#0d1117" x="719.8" y="50.3" width="85.4" height="24.65" shape-rendering="crispEdges"/><rect fill="#0d1117" x="805.2" y="50.3" width="646.6" height="24.65" shape-rendering="crispEdges"/><rect fill="#0d1117" x="1451.8" y="50.3" width="12.2" height="24.65" shape-rendering="crispEdges"/><rect fill="#0d1117" x="0" y="74.7" width="12.2" height="24.65" shape-rendering="crispEdges"/><rect fill="#0d1117" x="12.2" y="74.7" width="683.2" height="24.65" shape-rendering="crispEdges"/><rect fill="#0d1117" x="695.4" y="74.7" width="85.4" height="24.65" shape-rendering="crispEdges"/><rect fill="#0d1117" x="780.8" y="74.7" width="671" height="24.65" shape-rendering="crispEdges"/><rect fill="#0d1117" x="1451.8" y="74.7" width="12.2" height="24.65" shape-rendering="crispEdges"/><rect fill="#0d1117" x="0" y="99.1" width="12.2" height="24.65" shape-rendering="crispEdges"/><rect fill="#0d1117" x="12.2" y="99.1" width="353.8" height="24.65" shape-rendering="crispEdges"/><rect fill="#0d1117" x="366" y="99.1" width="85.4" height="24.65" shape-rendering="crispEdges"/><rect fill="#0d1117" x="451.4" y="99.1" width="1000.4" height="24.65" shape-rendering="crispEdges"/><rect fill="#0d1117" x="1451.8" y="99.1" width="12.2" height="24.65" shape-rendering="crispEdges"/><rect fill="#0d1117" x="0" y="123.5" width="12.2" height="24.65" shape-rendering="crispEdges"/><rect fill="#0d1117" x="12.2" y="123.5" width="24.4" height="24.65" shape-rendering="crispEdges"/><rect fill="#0d1117" x="36.6" y="123.5" width="158.6" height="24.65" shape-rendering="crispEdges"/><rect fill="#0d1117" x="195.2" y="123.5" width="85.4" height="24.65" shape-rendering="crispEdges"/><rect fill="#0d1117" x="280.6" y="123.5" width="85.4" height="24.65" shape-rendering="crispEdges"/><rect fill="#0d1117" x="366" y="123.5" width="1085.8" height="24.65" shape-rendering="crispEdges"/><rect fill="#0d1117" x="1451.8" y="123.5" width="12.2" height="24.65" shape-rendering="crispEdges"/><rect fill="#0d1117" x="0" y="147.9" width="12.2" height="24.65" shape-rendering="crispEdges"/><rect fill="#0d1117" x="12.2" y="147.9" width="463.6" height="24.65" shape-rendering="crispEdges"/><rect fill="#0d1117" x="475.8" y="147.9" width="85.4" height="24.65" shape-rendering="crispEdges"/><rect fill="#0d1117" x="561.2" y="147.9" width="890.6" height="24.65" shape-rendering="crispEdges"/><rect fill="#0d1117" x="1451.8" y="147.9" width="12.2" height="24.65" shape-rendering="crispEdges"/><rect fill="#0d1117" x="0" y="172.3" width="12.2" height="24.65" shape-rendering="crispEdges"/><rect fill="#0d1117" x="12.2" y="172.3" width="24.4" height="24.65" shape-rendering="crispEdges"/><rect fill="#0d1117" x="36.6" y="172.3" width="109.8" height="24.65" shape-rendering="crispEdges"/><rect fill="#0d1117" x="146.4" y="172.3" width="85.4" height="24.65" shape-rendering="crispEdges"/><rect fill="#0d1117" x="231.8" y="172.3" width="85.4" height="24.65" shape-rendering="crispEdges"/><rect fill="#0d1117" x="317.2" y="172.3" width="1134.6" height="24.65" shape-rendering="crispEdges"/><rect fill="#0d1117" x="1451.8" y="172.3" width="12.2" height="24.65" shape-rendering="crispEdges"/><rect fill="#0d1117" x="0" y="196.7" width="12.2" height="24.65" shape-rendering="crispEdges"/><rect fill="#0d1117" x="12.2" y="196.7" width="231.8" height="24.65" shape-rendering="crispEdges"/><rect fill="#0d1117" x="244" y="196.7" width="134.2" height="24.65" shape-rendering="crispEdges"/><rect fill="#0d1117" x="378.2" y="196.7" width="85.4" height="24.65" shape-rendering="crispEdges"/><rect fill="#0d1117" x="463.6" y="196.7" width="988.2" height="24.65" shape-rendering="crispEdges"/><rect fill="#0d1117" x="1451.8" y="196.7" width="12.2" height="24.65" shape-rendering="crispEdges"/><rect fill="#0d1117" x="0" y="221.1" width="12.2" height="24.65" shape-rendering="crispEdges"/><rect fill="#0d1117" x="12.2" y="221.1" width="24.4" height="24.65" shape-rendering="crispEdges"/><rect fill="#0d1117" x="36.6" y="221.1" width="256.2" height="24.65" shape-rendering="crispEdges"/><rect fill="#0d1117" x="292.8" y="221.1" width="158.6" height="24.65" shape-rendering="crispEdges"/><rect fill="#0d1117" x="451.4" y="221.1" width="85.4" height="24.65" shape-rendering="crispEdges"/><rect fill="#0d1117" x="536.8" y="221.1" width="915" height="24.65" shape-rendering="crispEdges"/><rect fill="#0d1117" x="1451.8" y="221.1" width="12.2" height="24.65" shape-rendering="crispEdges"/><rect fill="#0d1117" x="0" y="245.5" width="12.2" height="24.65" shape-rendering="crispEdges"/><rect fill="#0d1117" x="12.2" y="245.5" width="24.4" height="24.65" shape-rendering="crispEdges"/><rect fill="#0d1117" x="36.6" y="245.5" width="195.2" height="24.65" shape-rendering="crispEdges"/><rect fill="#0d1117" x="231.8" y="245.5" width="158.6" height="24.65" shape-rendering="crispEdges"/><rect fill="#0d1117" x="390.4" y="245.5" width="85.4" height="24.65" shape-rendering="crispEdges"/><rect fill="#0d1117" x="475.8" y="245.5" width="976" height="24.65" shape-rendering="crispEdges"/><rect fill="#0d1117" x="1451.8" y="245.5" width="12.2" height="24.65" shape-rendering="crispEdges"/><rect fill="#0d1117" x="0" y="269.9" width="12.2" height="24.65" shape-rendering="crispEdges"/><rect fill="#0d1117" x="12.2" y="269.9" width="244" height="24.65" shape-rendering="crispEdges"/><rect fill="#0d1117" x="256.2" y="269.9" width="134.2" height="24.65" shape-rendering="crispEdges"/><rect fill="#0d1117" x="390.4" y="269.9" width="97.6" height="24.65" shape-rendering="crispEdges"/><rect fill="#0d1117" x="488" y="269.9" width="963.8" height="24.65" shape-rendering="crispEdges"/><rect fill="#0d1117" x="1451.8" y="269.9" width="12.2" height="24.65" shape-rendering="crispEdges"/><rect fill="#0d1117" x="0" y="294.3" width="12.2" height="24.65" shape-rendering="crispEdges"/><rect fill="#0d1117" x="12.2" y="294.3" width="24.4" height="24.65" shape-rendering="crispEdges"/><rect fill="#0d1117" x="36.6" y="294.3" width="170.8" height="24.65" shape-rendering="crispEdges"/><rect fill="#0d1117" x="207.4" y="294.3" width="158.6" height="24.65" shape-rendering="crispEdges"/><rect fill="#0d1117" x="366" y="294.3" width="97.6" height="24.65" shape-rendering="crispEdges"/><rect fill="#0d1117" x="463.6" y="294.3" width="988.2" height="24.65" shape-rendering="crispEdges"/><rect fill="#0d1117" x="1451.8" y="294.3" width="12.2" height="24.65" shape-rendering="crispEdges"/><rect fill="#0d1117" x="0" y="318.7" width="12.2" height="24.65" shape-rendering="crispEdges"/><rect fill="#0d1117" x="12.2" y="318.7" width="0" height="24.65" shape-rendering="crispEdges"/><rect fill="#0d1117" x="12.2" y="318.7" width="1439.6" height="24.65" shape-rendering="crispEdges"/><rect fill="#0d1117" x="1451.8" y="318.7" width="12.2" height="24.65" shape-rendering="crispEdges"/><rect fill="#0d1117" x="0" y="343.1" width="12.2" height="24.65" shape-rendering="crispEdges"/><rect fill="#f85149" x="12.2" y="343.1" width="24.4" height="24.65" shape-rendering="crispEdges"/><rect fill="#f85149" x="36.6" y="343.1" width="195.2" height="24.65" shape-rendering="crispEdges"/><rect fill="#9ca2a8" x="231.8" y="343.1" width="122" height="24.65" shape-rendering="crispEdges"/><rect fill="#9ca2a8" x="353.8" y="343.1" width="97.6" height="24.65" shape-rendering="crispEdges"/><rect fill="#0d1117" x="451.4" y="343.1" width="1000.4" height="24.65" shape-rendering="crispEdges"/><rect fill="#0d1117" x="1451.8" y="343.1" width="12.2" height="24.65" shape-rendering="crispEdges"/><rect fill="#0d1117" x="0" y="367.5" width="12.2" height="24.65" shape-rendering="crispEdges"/><rect fill="#0d1117" x="12.2" y="367.5" width="0" height="24.65" shape-rendering="crispEdges"/><rect fill="#0d1117" x="12.2" y="367.5" width="1439.6" height="24.65" shape-rendering="crispEdges"/><rect fill="#0d1117" x="1451.8" y="367.5" width="12.2" height="24.65" shape-rendering="crispEdges"/><rect fill="#0d1117" x="0" y="391.9" width="12.2" height="24.65" shape-rendering="crispEdges"/><rect fill="#0d1117" x="12.2" y="391.9" width="671" height="24.65" shape-rendering="crispEdges"/><rect fill="#0d1117" x="683.2" y="391.9" width="97.6" height="24.65" shape-rendering="crispEdges"/><rect fill="#0d1117" x="780.8" y="391.9" width="671" height="24.65" shape-rendering="crispEdges"/><rect fill="#0d1117" x="1451.8" y="391.9" width="12.2" height="24.65" shape-rendering="crispEdges"/><rect fill="#0d1117" x="0" y="416.3" width="12.2" height="24.65" shape-rendering="crispEdges"/><rect fill="#0d1117" x="12.2" y="416.3" width="24.4" height="24.65" shape-rendering="crispEdges"/><rect fill="#0d1117" x="36.6" y="416.3" width="158.6" height="24.65" shape-rendering="crispEdges"/><rect fill="#0d1117" x="195.2" y="416.3" width="158.6" height="24.65" shape-rendering="crispEdges"/><rect fill="#0d1117" x="353.8" y="416.3" width="97.6" height="24.65" shape-rendering="crispEdges"/><rect fill="#0d1117" x="451.4" y="416.3" width="1000.4" height="24.65" shape-rendering="crispEdges"/><rect fill="#0d1117" x="1451.8" y="416.3" width="12.2" height="24.65" shape-rendering="crispEdges"/><rect fill="#0d1117" x="0" y="440.7" width="12.2" height="24.65" shape-rendering="crispEdges"/><rect fill="#0d1117" x="12.2" y="440.7" width="0" height="24.65" shape-rendering="crispEdges"/><rect fill="#0d1117" x="12.2" y="440.7" width="1439.6" height="24.65" shape-rendering="crispEdges"/><rect fill="#0d1117" x="1451.8" y="440.7" width="12.2" height="24.65" shape-rendering="crispEdges"/><rect fill="#0d1117" x="0" y="465.1" width="12.2" height="24.65" shape-rendering="crispEdges"/><rect fill="#0d1117" x="12.2" y="465.1" width="24.4" height="24.65" shape-rendering="crispEdges"/><rect fill="#0d1117" x="36.6" y="465.1" width="170.8" height="24.65" shape-rendering="crispEdges"/><rect fill="#0d1117" x="207.4" y="465.1" width="134.2" height="24.65" shape-rendering="crispEdges"/><rect fill="#0d1117" x="341.6" y="465.1" width="97.6" height="24.65" shape-rendering="crispEdges"/><rect fill="#0d1117" x="439.2" y="465.1" width="1012.6" height="24.65" shape-rendering="crispEdges"/><rect fill="#0d1117" x="1451.8" y="465.1" width="12.2" height="24.65" shape-rendering="crispEdges"/><rect fill="#0d1117" x="0" y="489.5" width="12.2" height="24.65" shape-rendering="crispEdges"/><rect fill="#0d1117" x="12.2" y="489.5" width="24.4" height="24.65" shape-rendering="crispEdges"/><rect fill="#0d1117" x="36.6" y="489.5" width="1366.4" height="24.65" shape-rendering="crispEdges"/><rect fill="#0d1117" x="1403" y="489.5" width="48.8" height="24.65" shape-rendering="crispEdges"/><rect fill="#0d1117" x="1451.8" y="489.5" width="12.2" height="24.65" shape-rendering="crispEdges"/><rect fill="#0d1117" x="0" y="513.9" width="12.2" height="24.65" shape-rendering="crispEdges"/><rect fill="#0d1117" x="12.2" y="513.9" width="780.8" height="24.65" shape-rendering="crispEdges"/><rect fill="#0d1117" x="793" y="513.9" width="658.8" height="24.65" shape-rendering="crispEdges"/><rect fill="#0d1117" x="1451.8" y="513.9" width="12.2" height="24.65" shape-rendering="crispEdges"/><rect fill="#0d1117" x="0" y="538.3" width="12.2" height="24.65" shape-rendering="crispEdges"/><rect fill="#0d1117" x="12.2" y="538.3" width="0" height="24.65" shape-rendering="crispEdges"/><rect fill="#0d1117" x="12.2" y="538.3" width="1439.6" height="24.65" shape-rendering="crispEdges"/><rect fill="#0d1117" x="1451.8" y="538.3" width="12.2" height="24.65" shape-rendering="crispEdges"/><rect fill="#0d1117" x="0" y="562.7" width="12.2" height="24.65" shape-rendering="crispEdges"/><rect fill="#0d1117" x="12.2" y="562.7" width="622.2" height="24.65" shape-rendering="crispEdges"/><rect fill="#0d1117" x="634.4" y="562.7" width="97.6" height="24.65" shape-rendering="crispEdges"/><rect fill="#0d1117" x="732" y="562.7" width="719.8" height="24.65" shape-rendering="crispEdges"/><rect fill="#0d1117" x="1451.8" y="562.7" width="12.2" height="24.65" shape-rendering="crispEdges"/><rect fill="#0d1117" x="0" y="587.1" width="12.2" height="24.65" shape-rendering="crispEdges"/><rect fill="#0d1117" x="12.2" y="587.1" width="170.8" height="24.65" shape-rendering="crispEdges"/><rect fill="#0d1117" x="183" y="587.1" width="97.6" height="24.65" shape-rendering="crispEdges"/><rect fill="#0d1117" x="280.6" y="587.1" width="1171.2" height="24.65" shape-rendering="crispEdges"/><rect fill="#0d1117" x="1451.8" y="587.1" width="12.2" height="24.65" shape-rendering="crispEdges"/><rect fill="#0d1117" x="0" y="611.5" width="1464" height="24.65" shape-rendering="crispEdges"/><rect fill="#0d1117" x="0" y="635.9" width="1464" height="24.65" shape-rendering="crispEdges"/><rect fill="#0d1117" x="0" y="660.3" width="1464" height="24.65" shape-rendering="crispEdges"/><rect fill="#0d1117" x="0" y="684.7" width="1464" height="24.65" shape-rendering="crispEdges"/><rect fill="#0d1117" x="0" y="709.1" width="1464" height="24.65" shape-rendering="crispEdges"/><rect fill="#0d1117" x="0" y="733.5" width="1464" height="24.65" shape-rendering="crispEdges"/><rect fill="#161b22" x="0" y="757.9" width="12.2" height="24.65" shape-rendering="crispEdges"/><rect fill="#161b22" x="12.2" y="757.9" width="1439.6" height="24.65" shape-rendering="crispEdges"/><rect fill="#0d1117" x="1451.8" y="757.9" width="12.2" height="24.65" shape-rendering="crispEdges"/><rect fill="#161b22" x="0" y="782.3" width="12.2" height="24.65" shape-rendering="crispEdges"/><rect fill="#161b22" x="12.2" y="782.3" width="24.4" height="24.65" shape-rendering="crispEdges"/><rect fill="#161b22" x="36.6" y="782.3" width="366" height="24.65" shape-rendering="crispEdges"/><rect fill="#161b22" x="402.6" y="782.3" width="1024.8" height="24.65" shape-rendering="crispEdges"/><rect fill="#161b22" x="1427.4" y="782.3" width="24.4" height="24.65" shape-rendering="crispEdges"/><rect fill="#0d1117" x="1451.8" y="782.3" width="12.2" height="24.65" shape-rendering="crispEdges"/><rect fill="#161b22" x="0" y="806.7" width="12.2" height="24.65" shape-rendering="crispEdges"/><rect fill="#161b22" x="12.2" y="806.7" width="1439.6" height="24.65" shape-rendering="crispEdges"/><rect fill="#0d1117" x="1451.8" y="806.7" width="12.2" height="24.65" shape-rendering="crispEdges"/><rect fill="#0d1117" x="0" y="831.1" width="12.2" height="24.65" shape-rendering="crispEdges"/><rect fill="#0d1117" x="12.2" y="831.1" width="219.6" height="24.65" shape-rendering="crispEdges"/><rect fill="#0d1117" x="231.8" y="831.1" width="1220" height="24.65" shape-rendering="crispEdges"/><rect fill="#0d1117" x="1451.8" y="831.1" width="12.2" height="24.65" shape-rendering="crispEdges"/><rect fill="#161b22" x="0" y="855.5" width="36.6" height="24.65" shape-rendering="crispEdges"/><rect fill="#161b22" x="36.6" y="855.5" width="61" height="24.65" shape-rendering="crispEdges"/><rect fill="#161b22" x="97.6" y="855.5" width="36.6" height="24.65" shape-rendering="crispEdges"/><rect fill="#161b22" x="134.2" y="855.5" width="61" height="24.65" shape-rendering="crispEdges"/><rect fill="#161b22" x="195.2" y="855.5" width="36.6" height="24.65" shape-rendering="crispEdges"/><rect fill="#161b22" x="231.8" y="855.5" width="85.4" height="24.65" shape-rendering="crispEdges"/><rect fill="#161b22" x="317.2" y="855.5" width="85.4" height="24.65" shape-rendering="crispEdges"/><rect fill="#161b22" x="402.6" y="855.5" width="134.2" height="24.65" shape-rendering="crispEdges"/><rect fill="#161b22" x="536.8" y="855.5" width="780.8" height="24.65" shape-rendering="crispEdges"/><rect fill="#161b22" x="1317.6" y="855.5" width="12.2" height="24.65" shape-rendering="crispEdges"/><rect fill="#161b22" x="1329.8" y="855.5" width="24.4" height="24.65" shape-rendering="crispEdges"/><rect fill="#161b22" x="1354.2" y="855.5" width="97.6" height="24.65" shape-rendering="crispEdges"/><rect fill="#161b22" x="1451.8" y="855.5" width="12.2" height="24.65" shape-rendering="crispEdges"/>
    <g class="terminal-2941101838-matrix">
    <text class="terminal-2941101838-r2" x="12.2" y="20" textLength="12.2" clip-path="url(#terminal-2941101838-line-0)">⭘</text><text class="terminal-2941101838-r2" x="585.6" y="20" textLength="256.2" clip-path="url(#terminal-2941101838-line-0)">in-TUI-tion&#160;·&#160;console</text><text class="terminal-2941101838-r1" x="1464" y="20" textLength="12.2" clip-path="url(#terminal-2941101838-line-0)">
</text><text class="terminal-2941101838-r3" x="12.2" y="44.4" textLength="1244.4" clip-path="url(#terminal-2941101838-line-1)">▰▰▰▰▰▰▰▰▰▰▰▰▰▰▰▰▰▰▰▰▰▰▰▰▰▰▰▰▰▰▰▰▰▰▰▰▰▰▰▰▰▰▰▰▰▰▰▰▰▰▰▰▰▰▰▰▰▰▰▰▰▰▰▰▰▰▰▰▰▰▰▰▰▰▰▰▰▰▰▰▰▰▰▰▰▰▰▰▰▰▰▰▰▰▰▰▰▰▰▰▰▰</text><text class="terminal-2941101838-r4" x="1281" y="44.4" textLength="12.2" clip-path="url(#terminal-2941101838-line-1)">✔</text><text class="terminal-2941101838-r2" x="1293.2" y="44.4" textLength="85.4" clip-path="url(#terminal-2941101838-line-1)">&#160;passed</text><text class="terminal-2941101838-r1" x="1464" y="44.4" textLength="12.2" clip-path="url(#terminal-2941101838-line-1)">
</text><text class="terminal-2941101838-r2" x="12.2" y="68.8" textLength="24.4" clip-path="url(#terminal-2941101838-line-2)">›&#160;</text><text class="terminal-2941101838-r5" x="36.6" y="68.8" textLength="597.8" clip-path="url(#terminal-2941101838-line-2)">Build&#160;me&#160;a&#160;small&#160;service&#160;with&#160;a&#160;schema&#160;and&#160;tests.</text><text class="terminal-2941101838-r6" x="634.4" y="68.8" textLength="85.4" clip-path="url(#terminal-2941101838-line-2)">&#160;&#160;‹you›</text><text class="terminal-2941101838-r6" x="719.8" y="68.8" textLength="85.4" clip-path="url(#terminal-2941101838-line-2)">&#160;&#160;+0.0s</text><text class="terminal-2941101838-r1" x="1464" y="68.8" textLength="12.2" clip-path="url(#terminal-2941101838-line-2)">
</text><text class="terminal-2941101838-r2" x="12.2" y="93.2" textLength="683.2" clip-path="url(#terminal-2941101838-line-3)">›&#160;Planning&#160;four&#160;tasks:&#160;schema,&#160;services,&#160;verify,&#160;report.</text><text class="terminal-2941101838-r6" x="695.4" y="93.2" textLength="85.4" clip-path="url(#terminal-2941101838-line-3)">&#160;&#160;+1.0s</text><text class="terminal-2941101838-r1" x="1464" y="93.2" textLength="12.2" clip-path="url(#terminal-2941101838-line-3)">
</text><text class="terminal-2941101838-r2" x="12.2" y="117.6" textLength="353.8" clip-path="url(#terminal-2941101838-line-4)">?&#160;Target&#160;Python&#160;3.11&#160;or&#160;3.12?</text><text class="terminal-2941101838-r6" x="366" y="117.6" textLength="85.4" clip-path="url(#terminal-2941101838-line-4)">&#160;&#160;+2.0s</text><text class="terminal-2941101838-r1" x="1464" y="117.6" textLength="12.2" clip-path="url(#terminal-2941101838-line-4)">
</text><text class="terminal-2941101838-r2" x="12.2" y="142" textLength="24.4" clip-path="url(#terminal-2941101838-line-5)">›&#160;</text><text class="terminal-2941101838-r5" x="36.6" y="142" textLength="158.6" clip-path="url(#terminal-2941101838-line-5)">3.11&#160;is&#160;fine.</text><text class="terminal-2941101838-r6" x="195.2" y="142" textLength="85.4" clip-path="url(#terminal-2941101838-line-5)">&#160;&#160;‹you›</text><text class="terminal-2941101838-r6" x="280.6" y="142" textLength="85.4" clip-path="url(#terminal-2941101838-line-5)">&#160;&#160;+3.0s</text><text class="terminal-2941101838-r1" x="1464" y="142" textLength="12.2" clip-path="url(#terminal-2941101838-line-5)">
</text><text class="terminal-2941101838-r2" x="12.2" y="166.4" textLength="463.6" clip-path="url(#terminal-2941101838-line-6)">?&#160;Approve&#160;the&#160;plan&#160;and&#160;start&#160;building?</text><text class="terminal-2941101838-r6" x="475.8" y="166.4" textLength="85.4" clip-path="url(#terminal-2941101838-line-6)">&#160;&#160;+4.0s</text><text class="terminal-2941101838-r1" x="1464" y="166.4" textLength="12.2" clip-path="url(#terminal-2941101838-line-6)">
</text><text class="terminal-2941101838-r2" x="12.2" y="190.8" textLength="24.4" clip-path="url(#terminal-2941101838-line-7)">›&#160;</text><text class="terminal-2941101838-r5" x="36.6" y="190.8" textLength="109.8" clip-path="url(#terminal-2941101838-line-7)">Approved.</text><text class="terminal-2941101838-r6" x="146.4" y="190.8" textLength="85.4" clip-path="url(#terminal-2941101838-line-7)">&#160;&#160;‹you›</text><text class="terminal-2941101838-r6" x="231.8" y="190.8" textLength="85.4" clip-path="url(#terminal-2941101838-line-7)">&#160;&#160;+5.0s</text><text class="terminal-2941101838-r1" x="1464" y="190.8" textLength="12.2" clip-path="url(#terminal-2941101838-line-7)">
</text><text class="terminal-2941101838-r2" x="12.2" y="215.2" textLength="231.8" clip-path="url(#terminal-2941101838-line-8)">⊘&#160;Design&#160;the&#160;schema</text><text class="terminal-2941101838-r6" x="244" y="215.2" textLength="134.2" clip-path="url(#terminal-2941101838-line-8)">&#160;&#160;[blocked]</text><text class="terminal-2941101838-r6" x="378.2" y="215.2" textLength="85.4" clip-path="url(#terminal-2941101838-line-8)">&#160;&#160;+7.0s</text><text class="terminal-2941101838-r1" x="1464" y="215.2" textLength="12.2" clip-path="url(#terminal-2941101838-line-8)">
</text><text class="terminal-2941101838-r3" x="12.2" y="239.6" textLength="24.4" clip-path="url(#terminal-2941101838-line-9)">✓&#160;</text><text class="terminal-2941101838-r2" x="36.6" y="239.6" textLength="256.2" clip-path="url(#terminal-2941101838-line-9)">Generate&#160;the&#160;services</text><text class="terminal-2941101838-r6" x="292.8" y="239.6" textLength="158.6" clip-path="url(#terminal-2941101838-line-9)">&#160;&#160;[completed]</text><text class="terminal-2941101838-r6" x="451.4" y="239.6" textLength="85.4" clip-path="url(#terminal-2941101838-line-9)">&#160;&#160;+8.0s</text><text class="terminal-2941101838-r1" x="1464" y="239.6" textLength="12.2" clip-path="url(#terminal-2941101838-line-9)">
</text><text class="terminal-2941101838-r3" x="12.2" y="264" textLength="24.4" clip-path="url(#terminal-2941101838-line-10)">✓&#160;</text><text class="terminal-2941101838-r2" x="36.6" y="264" textLength="195.2" clip-path="url(#terminal-2941101838-line-10)">Verify&#160;the&#160;build</text><text class="terminal-2941101838-r6" x="231.8" y="264" textLength="158.6" clip-path="url(#terminal-2941101838-line-10)">&#160;&#160;[completed]</text><text class="terminal-2941101838-r6" x="390.4" y="264" textLength="85.4" clip-path="url(#terminal-2941101838-line-10)">&#160;&#160;+9.0s</text><text class="terminal-2941101838-r1" x="1464" y="264" textLength="12.2" clip-path="url(#terminal-2941101838-line-10)">
</text><text class="terminal-2941101838-r2" x="12.2" y="288.4" textLength="244" clip-path="url(#terminal-2941101838-line-11)">◌&#160;Publish&#160;the&#160;report</text><text class="terminal-2941101838-r6" x="256.2" y="288.4" textLength="134.2" clip-path="url(#terminal-2941101838-line-11)">&#160;&#160;[pending]</text><text class="terminal-2941101838-r6" x="390.4" y="288.4" textLength="97.6" clip-path="url(#terminal-2941101838-line-11)">&#160;&#160;+10.0s</text><text class="terminal-2941101838-r1" x="1464" y="288.4" textLength="12.2" clip-path="url(#terminal-2941101838-line-11)">
</text><text class="terminal-2941101838-r3" x="12.2" y="312.8" textLength="24.4" clip-path="url(#terminal-2941101838-line-12)">✓&#160;</text><text class="terminal-2941101838-r2" x="36.6" y="312.8" textLength="170.8" clip-path="url(#terminal-2941101838-line-12)">draft&#160;entities</text><text class="terminal-2941101838-r6" x="207.4" y="312.8" textLength="158.6" clip-path="url(#terminal-2941101838-line-12)">&#160;&#160;[completed]</text><text class="terminal-2941101838-r6" x="366" y="312.8" textLength="97.6" clip-path="url(#terminal-2941101838-line-12)">&#160;&#160;+14.0s</text><text class="terminal-2941101838-r1" x="1464" y="312.8" textLength="12.2" clip-path="url(#terminal-2941101838-line-12)">
</text><text class="terminal-2941101838-r1" x="1464" y="337.2" textLength="12.2" clip-path="url(#terminal-2941101838-line-13)">
</text><text class="terminal-2941101838-r7" x="12.2" y="361.6" textLength="24.4" clip-path="url(#terminal-2941101838-line-14)">▌&#160;</text><text class="terminal-2941101838-r7" x="36.6" y="361.6" textLength="195.2" clip-path="url(#terminal-2941101838-line-14)">✗&#160;wire&#160;relations</text><text class="terminal-2941101838-r7" x="231.8" y="361.6" textLength="122" clip-path="url(#terminal-2941101838-line-14)">&#160;&#160;[failed]</text><text class="terminal-2941101838-r7" x="353.8" y="361.6" textLength="97.6" clip-path="url(#terminal-2941101838-line-14)">&#160;&#160;+18.0s</text><text class="terminal-2941101838-r1" x="1464" y="361.6" textLength="12.2" clip-path="url(#terminal-2941101838-line-14)">
</text><text class="terminal-2941101838-r1" x="1464" y="386" textLength="12.2" clip-path="url(#terminal-2941101838-line-15)">
</text><text class="terminal-2941101838-r2" x="12.2" y="410.4" textLength="671" clip-path="url(#terminal-2941101838-line-16)">›&#160;Schema&#160;relations&#160;failed;&#160;retrying&#160;under&#160;the&#160;verifier.</text><text class="terminal-2941101838-r6" x="683.2" y="410.4" textLength="97.6" clip-path="url(#terminal-2941101838-line-16)">&#160;&#160;+21.0s</text><text class="terminal-2941101838-r1" x="1464" y="410.4" textLength="12.2" clip-path="url(#terminal-2941101838-line-16)">
</text><text class="terminal-2941101838-r3" x="12.2" y="434.8" textLength="24.4" clip-path="url(#terminal-2941101838-line-17)">✓&#160;</text><text class="terminal-2941101838-r2" x="36.6" y="434.8" textLength="158.6" clip-path="url(#terminal-2941101838-line-17)">emit&#160;handlers</text><text class="terminal-2941101838-r6" x="195.2" y="434.8" textLength="158.6" clip-path="url(#terminal-2941101838-line-17)">&#160;&#160;[completed]</text><text class="terminal-2941101838-r6" x="353.8" y="434.8" textLength="97.6" clip-path="url(#terminal-2941101838-line-17)">&#160;&#160;+22.0s</text><text class="terminal-2941101838-r1" x="1464" y="434.8" textLength="12.2" clip-path="url(#terminal-2941101838-line-17)">
</text><text class="terminal-2941101838-r1" x="1464" y="459.2" textLength="12.2" clip-path="url(#terminal-2941101838-line-18)">
</text><text class="terminal-2941101838-r8" x="12.2" y="483.6" textLength="24.4" clip-path="url(#terminal-2941101838-line-19)">▌&#160;</text><text class="terminal-2941101838-r8" x="36.6" y="483.6" textLength="170.8" clip-path="url(#terminal-2941101838-line-19)">▣&#160;Run&#160;evidence</text><text class="terminal-2941101838-r6" x="207.4" y="483.6" textLength="134.2" clip-path="url(#terminal-2941101838-line-19)">&#160;&#160;[summary]</text><text class="terminal-2941101838-r6" x="341.6" y="483.6" textLength="97.6" clip-path="url(#terminal-2941101838-line-19)">&#160;&#160;+31.0s</text><text class="terminal-2941101838-r1" x="1464" y="483.6" textLength="12.2" clip-path="url(#terminal-2941101838-line-19)">
</text><text class="terminal-2941101838-r8" x="12.2" y="508" textLength="24.4" clip-path="url(#terminal-2941101838-line-20)">▌&#160;</text><text class="terminal-2941101838-r2" x="36.6" y="508" textLength="1366.4" clip-path="url(#terminal-2941101838-line-20)">&#160;&#160;Pass&#160;rate&#160;92%&#160;·&#160;Quality&#160;issues&#160;3&#160;·&#160;ACB&#160;score&#160;B+&#160;·&#160;Drift&#160;low&#160;·&#160;Failure&#160;categories&#160;[&#x27;timeout&#x27;,&#160;&#x27;schema-drift&#x27;]&#160;·</text><text class="terminal-2941101838-r1" x="1464" y="508" textLength="12.2" clip-path="url(#terminal-2941101838-line-20)">
</text><text class="terminal-2941101838-r2" x="12.2" y="532.4" textLength="780.8" clip-path="url(#terminal-2941101838-line-21)">Delivered&#160;files&#160;[&#x27;src/app.py&#x27;,&#160;&#x27;README.md&#x27;]&#160;·&#160;Workdir&#160;‹redacted›</text><text class="terminal-2941101838-r1" x="1464" y="532.4" textLength="12.2" clip-path="url(#terminal-2941101838-line-21)">
</text><text class="terminal-2941101838-r1" x="1464" y="556.8" textLength="12.2" clip-path="url(#terminal-2941101838-line-22)">
</text><text class="terminal-2941101838-r2" x="12.2" y="581.2" textLength="622.2" clip-path="url(#terminal-2941101838-line-23)">›&#160;Run&#160;complete:&#160;3/4&#160;tasks&#160;passed,&#160;one&#160;task&#160;blocked.</text><text class="terminal-2941101838-r6" x="634.4" y="581.2" textLength="97.6" clip-path="url(#terminal-2941101838-line-23)">&#160;&#160;+33.0s</text><text class="terminal-2941101838-r1" x="1464" y="581.2" textLength="12.2" clip-path="url(#terminal-2941101838-line-23)">
</text><text class="terminal-2941101838-r2" x="12.2" y="605.6" textLength="170.8" clip-path="url(#terminal-2941101838-line-24)">◆&#160;Run&#160;finished</text><text class="terminal-2941101838-r6" x="183" y="605.6" textLength="97.6" clip-path="url(#terminal-2941101838-line-24)">&#160;&#160;+34.0s</text><text class="terminal-2941101838-r1" x="1464" y="605.6" textLength="12.2" clip-path="url(#terminal-2941101838-line-24)">
</text><text class="terminal-2941101838-r1" x="1464" y="630" textLength="12.2" clip-path="url(#terminal-2941101838-line-25)">
</text><text class="terminal-2941101838-r1" x="1464" y="654.4" textLength="12.2" clip-path="url(#terminal-2941101838-line-26)">
</text><text class="terminal-2941101838-r1" x="1464" y="678.8" textLength="12.2" clip-path="url(#terminal-2941101838-line-27)">
</text><text class="terminal-2941101838-r1" x="1464" y="703.2" textLength="12.2" clip-path="url(#terminal-2941101838-line-28)">
</text><text class="terminal-2941101838-r1" x="1464" y="727.6" textLength="12.2" clip-path="url(#terminal-2941101838-line-29)">
</text><text class="terminal-2941101838-r1" x="1464" y="752" textLength="12.2" clip-path="url(#terminal-2941101838-line-30)">
</text><text class="terminal-2941101838-r7" x="0" y="776.4" textLength="12.2" clip-path="url(#terminal-2941101838-line-31)">▊</text><text class="terminal-2941101838-r9" x="12.2" y="776.4" textLength="1439.6" clip-path="url(#terminal-2941101838-line-31)">▔▔▔▔▔▔▔▔▔▔▔▔▔▔▔▔▔▔▔▔▔▔▔▔▔▔▔▔▔▔▔▔▔▔▔▔▔▔▔▔▔▔▔▔▔▔▔▔▔▔▔▔▔▔▔▔▔▔▔▔▔▔▔▔▔▔▔▔▔▔▔▔▔▔▔▔▔▔▔▔▔▔▔▔▔▔▔▔▔▔▔▔▔▔▔▔▔▔▔▔▔▔▔▔▔▔▔▔▔▔▔▔▔▔▔▔▔▔</text><text class="terminal-2941101838-r9" x="1451.8" y="776.4" textLength="12.2" clip-path="url(#terminal-2941101838-line-31)">▎</text><text class="terminal-2941101838-r1" x="1464" y="776.4" textLength="12.2" clip-path="url(#terminal-2941101838-line-31)">
</text><text class="terminal-2941101838-r7" x="0" y="800.8" textLength="12.2" clip-path="url(#terminal-2941101838-line-32)">▊</text><text class="terminal-2941101838-r10" x="36.6" y="800.8" textLength="366" clip-path="url(#terminal-2941101838-line-32)">/&#160;for&#160;commands,&#160;or&#160;type&#160;a&#160;note</text><text class="terminal-2941101838-r9" x="1451.8" y="800.8" textLength="12.2" clip-path="url(#terminal-2941101838-line-32)">▎</text><text class="terminal-2941101838-r1" x="1464" y="800.8" textLength="12.2" clip-path="url(#terminal-2941101838-line-32)">
</text><text class="terminal-2941101838-r7" x="0" y="825.2" textLength="12.2" clip-path="url(#terminal-2941101838-line-33)">▊</text><text class="terminal-2941101838-r9" x="12.2" y="825.2" textLength="1439.6" clip-path="url(#terminal-2941101838-line-33)">▁▁▁▁▁▁▁▁▁▁▁▁▁▁▁▁▁▁▁▁▁▁▁▁▁▁▁▁▁▁▁▁▁▁▁▁▁▁▁▁▁▁▁▁▁▁▁▁▁▁▁▁▁▁▁▁▁▁▁▁▁▁▁▁▁▁▁▁▁▁▁▁▁▁▁▁▁▁▁▁▁▁▁▁▁▁▁▁▁▁▁▁▁▁▁▁▁▁▁▁▁▁▁▁▁▁▁▁▁▁▁▁▁▁▁▁▁▁</text><text class="terminal-2941101838-r9" x="1451.8" y="825.2" textLength="12.2" clip-path="url(#terminal-2941101838-line-33)">▎</text><text class="terminal-2941101838-r1" x="1464" y="825.2" textLength="12.2" clip-path="url(#terminal-2941101838-line-33)">
</text><text class="terminal-2941101838-r11" x="12.2" y="849.6" textLength="219.6" clip-path="url(#terminal-2941101838-line-34)">▶&#160;live&#160;·&#160;36&#160;events</text><text class="terminal-2941101838-r1" x="1464" y="849.6" textLength="12.2" clip-path="url(#terminal-2941101838-line-34)">
</text><text class="terminal-2941101838-r5" x="0" y="874" textLength="36.6" clip-path="url(#terminal-2941101838-line-35)">&#160;q&#160;</text><text class="terminal-2941101838-r2" x="36.6" y="874" textLength="61" clip-path="url(#terminal-2941101838-line-35)">Quit&#160;</text><text class="terminal-2941101838-r5" x="97.6" y="874" textLength="36.6" clip-path="url(#terminal-2941101838-line-35)">&#160;d&#160;</text><text class="terminal-2941101838-r2" x="134.2" y="874" textLength="61" clip-path="url(#terminal-2941101838-line-35)">Diff&#160;</text><text class="terminal-2941101838-r5" x="195.2" y="874" textLength="36.6" clip-path="url(#terminal-2941101838-line-35)">&#160;/&#160;</text><text class="terminal-2941101838-r2" x="231.8" y="874" textLength="85.4" clip-path="url(#terminal-2941101838-line-35)">Prompt&#160;</text><text class="terminal-2941101838-r5" x="317.2" y="874" textLength="85.4" clip-path="url(#terminal-2941101838-line-35)">&#160;space&#160;</text><text class="terminal-2941101838-r2" x="402.6" y="874" textLength="134.2" clip-path="url(#terminal-2941101838-line-35)">Pause/Live&#160;</text><text class="terminal-2941101838-r12" x="1317.6" y="874" textLength="12.2" clip-path="url(#terminal-2941101838-line-35)">▏</text><text class="terminal-2941101838-r5" x="1329.8" y="874" textLength="24.4" clip-path="url(#terminal-2941101838-line-35)">^p</text><text class="terminal-2941101838-r2" x="1354.2" y="874" textLength="97.6" clip-path="url(#terminal-2941101838-line-35)">&#160;palette</text>
    </g>
    </g>
</svg>
